1.9Hzhigh3min_grf.mot
version=1
nRows=10
nColumns 19
inDegrees=yes
endheader
time	1_ground_force_vx	1_ground_force_vy	1_ground_force_vz	1_ground_force_px	1_ground_force_py	1_ground_force_pz	1_ground_torque_x	1_ground_torque_y	1_ground_torque_z	2_ground_force_vx	2_ground_force_vy	2_ground_force_vz	2_ground_force_px	2_ground_force_py	2_ground_force_pz	2_ground_torque_x	2_ground_torque_y	2_ground_torque_z
            3.751500	            0.183969	            2.341720	            0.422297	           -0.233013	            0.005581	           -0.255695	            0.337727	           -0.009321	            0.063251	            0.510655	            1.291234	           -0.089476	           -0.232311	            0.006130	           -0.833667	           -0.205938	           -0.208302	           -0.113755
            3.752000	            0.458392	            2.703287	            0.193880	           -0.233013	            0.005581	           -0.255695	            0.366048	           -0.129280	            0.055584	            0.608487	            0.185511	            0.235039	           -0.232311	            0.006130	           -0.833667	           -0.149870	           -0.141526	           -0.226644
            3.752500	            0.595986	            2.342782	            0.191993	           -0.233013	            0.005581	           -0.255695	            0.159962	           -0.240420	            0.117891	            0.276968	            1.107076	           -0.324674	           -0.232311	            0.006130	           -0.833667	           -0.187824	           -0.037615	           -0.245108
            3.753000	            0.732587	            3.065248	           -0.126248	           -0.233013	            0.005581	           -0.255695	            0.417017	           -0.313862	            0.028786	            0.089548	            1.106567	           -0.371522	           -0.232311	            0.006130	           -0.833667	           -0.206747	            0.009312	           -0.169530
            3.753500	            0.685932	            2.526015	           -0.495300	           -0.233013	            0.005581	           -0.255695	            0.282811	           -0.239975	            0.027500	           -0.096502	            0.737427	           -0.325829	           -0.232311	            0.006130	           -0.833667	           -0.244293	            0.008974	           -0.112964
            3.754000	            0.641080	            2.704502	           -0.081710	           -0.233013	            0.005581	           -0.255695	            0.302565	           -0.101246	            0.007287	            0.137665	            0.738942	           -0.513641	           -0.232311	            0.006130	           -0.833667	           -0.168879	           -0.066376	           -0.113265
            3.754500	            0.595612	            2.523638	            0.055198	           -0.233013	            0.005581	           -0.255695	            0.259575	           -0.000157	            0.137465	           -0.001535	            0.369970	           -0.467967	           -0.232311	            0.006130	           -0.833667	           -0.281309	           -0.151656	           -0.170072
            3.755000	            0.412695	            2.522816	            0.239077	           -0.233013	            0.005581	           -0.255695	            0.270416	           -0.018559	            0.091944	            0.374217	            0.184832	            0.188210	           -0.232311	            0.006130	           -0.833667	           -0.187221	           -0.189329	           -0.113696
            3.755500	            0.412288	            2.883937	            0.103055	           -0.233013	            0.005581	           -0.255695	            0.351021	           -0.138470	            0.034823	            0.184015	            0.921920	           -0.137579	           -0.232311	            0.006130	           -0.833667	           -0.225054	           -0.132278	           -0.245429
            3.756000	            0.504316	            2.883365	            0.240395	           -0.233013	            0.005581	           -0.255695	            0.270003	           -0.249199	            0.000863	            0.420238	            0.370489	           -0.186578	           -0.232311	            0.006130	           -0.833667	           -0.187807	           -0.046933	           -0.282842
